<svg width="70.677px" height="70.677px" viewBox="-3.05 0 70.677 70.677" xmlns="http://www.w3.org/2000/svg">
  <g id="Group_1154" data-name="Group 1154" transform="translate(-410.032 -262.388)">
    <path id="Path_804" data-name="Path 804" d="M442.314,270.093a31.484,31.484,0,0,0-22.888,53.1c.273.293.556.576.83.85l.029.029a31.475,31.475,0,0,0,43.8.244c.01,0,.02-.01.029-.019.284-.274.567-.557.83-.84a31.475,31.475,0,0,0-22.634-53.364Zm0,19.744a11.742,11.742,0,1,1-11.727,11.737A11.735,11.735,0,0,1,442.314,289.837Z" fill="#534741" opacity="0.1" style="mix-blend-mode: multiply;isolation: isolate"/>
    <path id="Path_805" data-name="Path 805" d="M442.314,263.256a31.486,31.486,0,0,0-22.89,53.1c.28.29.56.58.83.85l.03.03q.42.42.87.81a31.469,31.469,0,0,0,42.05.25c.3-.27.6-.54.89-.82.01,0,.01-.01.02-.01.29-.28.57-.56.83-.84a31.478,31.478,0,0,0-22.63-53.37Zm-11.71,30.88c0-.11.01-.22.02-.32a10.328,10.328,0,0,1,.28-1.78,4.9,4.9,0,0,1,.17-.63,10.539,10.539,0,0,1,.67-1.75c.01-.02.02-.03.03-.05a6.172,6.172,0,0,1,.38-.72,11.009,11.009,0,0,1,1.42-1.96,11.914,11.914,0,0,1,1.78-1.63c.21-.16.43-.31.65-.45a10.446,10.446,0,0,1,1.23-.68,4.54,4.54,0,0,1,.45-.21,10.553,10.553,0,0,1,1.85-.61c.14-.04.28-.07.42-.1q.345-.075.69-.12c.21-.03.41-.06.62-.07a2.968,2.968,0,0,1,.42-.03c.21-.01.42-.02.63-.02.36,0,.72.02,1.07.05.23.02.46.05.68.08l.53.09.13.03a4.868,4.868,0,0,1,.52.12c.19.05.38.1.56.16.34.1.67.22.99.35.4.17.79.36,1.16.56a11.816,11.816,0,0,1,2.66,2c.26.26.52.54.76.83.12.15.23.29.34.44s.23.31.33.46a11.783,11.783,0,0,1,.61,1.01c.08.15.16.31.24.47.07.14.14.29.2.43a11.864,11.864,0,0,1,.73,2.35,4,4,0,0,1,.08.48c.03.16.05.31.07.47v.01c.02.15.03.29.04.44.01.1.02.2.02.3.01.2.02.4.02.6,0,.22-.01.44-.02.66a1.1,1.1,0,0,1-.02.18,2.7,2.7,0,0,1-.03.4,11.511,11.511,0,0,1-1.99,5.4c-.09.13-.18.26-.28.39a11.232,11.232,0,0,1-1.79,1.92c-.11.09-.22.18-.33.26a11.334,11.334,0,0,1-3,1.73c-.12.05-.25.1-.37.14-.14.05-.28.1-.42.14s-.28.09-.43.12c-.23.07-.46.12-.69.17-.2.04-.39.07-.58.1-.25.04-.5.07-.76.09-.34.03-.68.05-1.03.05a8.707,8.707,0,0,1-1.02-.05c-.26-.02-.51-.05-.77-.09-.19-.03-.38-.06-.57-.1-.23-.05-.47-.1-.7-.17-.14-.03-.29-.08-.43-.12s-.28-.09-.41-.14-.25-.09-.37-.14a11.561,11.561,0,0,1-3.22-1.89c-.13-.12-.26-.23-.39-.35a5,5,0,0,1-.41-.39,8.719,8.719,0,0,1-.76-.84c-.1-.12-.2-.25-.31-.38-.23-.32-.46-.65-.67-1-.1-.16-.19-.32-.28-.49a11.324,11.324,0,0,1-1.18-3.24,8.4,8.4,0,0,1-.17-1.12,2.7,2.7,0,0,1-.03-.4,1.1,1.1,0,0,1-.02-.18c-.01-.22-.02-.44-.02-.66C430.584,294.536,430.594,294.336,430.6,294.136Z" fill="#f4ae69"/>
    <path id="Path_806" data-name="Path 806" d="M442.314,263.256a31.486,31.486,0,0,0-22.89,53.1c.28.29.56.58.83.85l.03.03q.42.42.87.81a9.914,9.914,0,0,0,5.09-3.59c.91-1.06,1.39-1.58,2.39-1.76a5.41,5.41,0,0,1,.91-.07c1.08,0,1.81.96,3.22,3.15.2.31.39.62.6.92,1.92,2.92,4.34,5.62,8.95,5.62a11.291,11.291,0,0,0,4.73-.95,14.689,14.689,0,0,0,4.78-3.69c1.56-1.62,2.45-2.47,4.02-2.47a5.5,5.5,0,0,1,3.8,1.24,12.727,12.727,0,0,0,3.56,1.85c.3-.27.6-.54.89-.82.01,0,.01-.01.02-.01.29-.28.57-.56.83-.84a31.478,31.478,0,0,0-22.63-53.37Zm-11.71,30.88c0-.11.01-.22.02-.32.012-.184.039-.366.062-.548.058-.416.123-.824.218-1.232.05-.21.11-.42.17-.63.064-.231.145-.454.225-.677.046-.131.1-.262.148-.391.094-.23.189-.459.3-.682.01-.02.02-.03.03-.05.12-.24.25-.49.38-.72a12.56,12.56,0,0,1,1.42-1.96,11.914,11.914,0,0,1,1.78-1.63c.21-.16.43-.31.65-.45a10.446,10.446,0,0,1,1.23-.68,4.54,4.54,0,0,1,.45-.21,10.553,10.553,0,0,1,1.85-.61c.14-.04.28-.07.42-.1q.345-.075.69-.12c.21-.03.41-.06.62-.07a2.968,2.968,0,0,1,.42-.03c.21-.01.42-.02.63-.02.36,0,.72.02,1.07.05.23.02.46.05.68.08a4.892,4.892,0,0,1,.53.09l.13.03a4.868,4.868,0,0,1,.52.12c.19.05.38.1.56.16.34.1.67.22.99.35.4.17.79.36,1.16.56a11.816,11.816,0,0,1,2.66,2c.26.26.52.54.76.83.12.15.23.29.34.44s.23.31.33.46a11.783,11.783,0,0,1,.61,1.01c.08.15.16.31.24.47.07.14.14.29.2.43a11.864,11.864,0,0,1,.73,2.35,4,4,0,0,1,.08.48c.03.16.05.31.07.47v.01c.02.14.03.29.04.44.01.1.02.2.02.3.01.2.02.4.02.6,0,.22-.01.44-.02.66a1.1,1.1,0,0,1-.02.18,2.8,2.8,0,0,1-.03.4,11.511,11.511,0,0,1-1.99,5.4c-.09.13-.18.26-.28.39a11.232,11.232,0,0,1-1.79,1.92c-.11.09-.22.18-.33.26a11.334,11.334,0,0,1-3,1.73c-.12.05-.24.1-.37.14s-.28.1-.42.14-.28.09-.43.12c-.23.07-.46.12-.69.17-.2.04-.39.07-.58.1-.25.04-.5.07-.76.09-.34.03-.68.05-1.03.05a8.707,8.707,0,0,1-1.02-.05c-.26-.02-.51-.05-.77-.09-.19-.03-.38-.06-.57-.1-.23-.05-.47-.1-.7-.17-.14-.03-.29-.08-.43-.12s-.28-.09-.41-.14-.25-.09-.37-.14a11.561,11.561,0,0,1-3.22-1.89c-.13-.12-.26-.23-.39-.35a5,5,0,0,1-.41-.39,8.719,8.719,0,0,1-.76-.84c-.1-.12-.2-.25-.31-.38-.23-.32-.46-.65-.67-1-.1-.16-.19-.32-.28-.49a11.324,11.324,0,0,1-1.18-3.24,10.427,10.427,0,0,1-.17-1.12,2.8,2.8,0,0,1-.03-.4,1.1,1.1,0,0,1-.02-.18c-.01-.22-.02-.44-.02-.66C430.584,294.536,430.594,294.336,430.6,294.136Z" fill="#f4ae69" opacity="0.2" style="mix-blend-mode: multiply;isolation: isolate"/>
    <path id="Path_807" data-name="Path 807" d="M474.586,293.47a32.089,32.089,0,0,0-7.743-19.657c-.2-.244-.41-.488-.625-.722a32.257,32.257,0,0,0-56.186,21.648c0,.186,0,.371.01.557,0,.332.01.664.029.986a32.157,32.157,0,0,0,7.451,19.148,2.5,2.5,0,0,0,2.46.869c4.883-1.1,4.56-4.9,8.329-5.575a7.632,7.632,0,0,1,1.231-.1c2.607,0,3.857,2.51,5.488,4.97,1.572,2.383,3.486,4.717,7.284,4.717a9.443,9.443,0,0,0,3.925-.772c4.17-1.836,5.254-6.337,9.609-6.337,4.472,0,4.491,2.236,8.446,3.33a2.484,2.484,0,0,0,2.558-.8A32.111,32.111,0,0,0,474.586,293.47Zm-20.555,1.923a11.73,11.73,0,0,1-23.425,0c-.01-.215-.019-.439-.019-.654a11.024,11.024,0,0,1,.088-1.406,12.167,12.167,0,0,1,.6-2.539,10.074,10.074,0,0,1,.508-1.191,11.717,11.717,0,0,1,15.018-5.712,11.393,11.393,0,0,1,1.162.556,11.738,11.738,0,0,1,6.015,8.935v.009a12.157,12.157,0,0,1,.078,1.348C454.051,294.954,454.041,295.178,454.031,295.393Z" fill="#ef6060"/>
    <path id="Path_808" data-name="Path 808" d="M474.584,293.466a32.044,32.044,0,0,0-7.74-19.65c-.2-.25-.41-.49-.63-.73a32.2,32.2,0,0,0-46.6-1.3c-.25.63-.49,1.26-.7,1.9a35.042,35.042,0,0,0,9.4,37.04,7.461,7.461,0,0,1,1.23-.1c2.61,0,3.86,2.51,5.49,4.97a34.636,34.636,0,0,0,11.21,3.94c4.17-1.83,5.25-6.33,9.6-6.33,4.48,0,4.5,2.23,8.45,3.33a2.426,2.426,0,0,0,.65.09,2.526,2.526,0,0,0,1.91-.89A32.122,32.122,0,0,0,474.584,293.466Zm-20.55,1.93a1.1,1.1,0,0,1-.02.18,2.8,2.8,0,0,1-.03.4,11.511,11.511,0,0,1-1.99,5.4,3.885,3.885,0,0,1-.28.39,11.232,11.232,0,0,1-1.79,1.92c-.11.09-.22.18-.33.26a11.334,11.334,0,0,1-3,1.73c-.12.05-.24.1-.37.14s-.28.1-.42.14a3.027,3.027,0,0,1-.43.12c-.23.07-.46.12-.69.17-.19.04-.38.07-.58.1-.25.04-.5.07-.76.09-.34.03-.68.05-1.03.05a8.707,8.707,0,0,1-1.02-.05c-.26-.02-.51-.05-.77-.09-.19-.03-.38-.06-.57-.1-.23-.05-.47-.1-.7-.17a3.448,3.448,0,0,1-.43-.12c-.14-.04-.28-.09-.41-.14s-.25-.09-.37-.14a11.561,11.561,0,0,1-3.22-1.89c-.13-.12-.26-.23-.39-.35a5,5,0,0,1-.41-.39,8.719,8.719,0,0,1-.76-.84c-.11-.12-.21-.25-.31-.38-.23-.32-.46-.65-.67-1-.1-.16-.19-.32-.28-.49a11.324,11.324,0,0,1-1.18-3.24,10.427,10.427,0,0,1-.17-1.12,2.8,2.8,0,0,1-.03-.4,1.1,1.1,0,0,1-.02-.18c-.01-.22-.02-.44-.02-.66,0-.2.01-.4.02-.6,0-.11.01-.21.02-.32.012-.184.039-.366.062-.548.058-.416.123-.824.218-1.232.05-.21.11-.42.17-.63.064-.231.145-.454.225-.677.046-.131.1-.262.148-.391.094-.23.189-.459.3-.682.01-.02.02-.03.03-.05.12-.24.25-.49.38-.72a12.56,12.56,0,0,1,1.42-1.96,11.914,11.914,0,0,1,1.78-1.63c.21-.16.43-.31.65-.45a10.446,10.446,0,0,1,1.23-.68c.15-.08.3-.14.45-.21a10.553,10.553,0,0,1,1.85-.61c.14-.04.28-.07.42-.1q.345-.075.69-.12c.21-.03.41-.06.62-.07a2.968,2.968,0,0,1,.42-.03c.21-.01.42-.02.63-.02.36,0,.72.02,1.07.05.23.02.46.05.68.08a4.892,4.892,0,0,1,.53.09l.13.03a4.868,4.868,0,0,1,.52.12,5.144,5.144,0,0,1,.56.16c.34.1.67.22.99.35.4.17.79.36,1.16.56a11.816,11.816,0,0,1,2.66,2,9.963,9.963,0,0,1,.76.83c.12.15.23.29.34.44s.23.31.33.46a11.783,11.783,0,0,1,.61,1.01,5.217,5.217,0,0,1,.24.47c.07.14.14.29.2.43a11.864,11.864,0,0,1,.73,2.35c.03.16.06.32.08.48s.05.31.07.47v.01c.02.14.03.29.04.44.01.1.02.2.02.3.01.2.02.4.02.6C454.054,294.956,454.044,295.176,454.034,295.4Z" fill="#ef6060" opacity="0.2" style="mix-blend-mode: screen;isolation: isolate"/>
    <path id="Path_809" data-name="Path 809" d="M453.992,292.786c0,.2-.009.4-.019.6a11.73,11.73,0,0,0-23.3-.049,4.913,4.913,0,0,1-.02-.547,11.669,11.669,0,1,1,23.337,0Z" fill="#ef6060" opacity="0.28" style="mix-blend-mode: multiply;isolation: isolate"/>
    <ellipse id="Ellipse_196" data-name="Ellipse 196" cx="2.991" cy="10.608" rx="2.991" ry="10.608" transform="matrix(0.319, -0.948, 0.948, 0.319, 439.937, 268.058)" fill="#ef6060" opacity="0.4" style="mix-blend-mode: screen;isolation: isolate"/>
    <path id="Path_810" data-name="Path 810" d="M466.262,283.628" fill="#ef6060"/>
    <path id="Path_811" data-name="Path 811" d="M442.984,317.869a.488.488,0,0,1-.394-.776l.743-1.019a.488.488,0,0,1,.789.576l-.744,1.019A.486.486,0,0,1,442.984,317.869Z" fill="#ef6060" opacity="0.3" style="mix-blend-mode: multiply;isolation: isolate"/>
    <path id="Path_812" data-name="Path 812" d="M443.633,316.369l-.742,1.015a.49.49,0,0,1-.39.2.556.556,0,0,1-.293-.1.527.527,0,0,1-.176-.264.471.471,0,0,1,.078-.42l.742-1.016a.473.473,0,0,1,.42-.2.544.544,0,0,1,.264.1A.484.484,0,0,1,443.633,316.369Z" fill="#f7d166"/>
    <path id="Path_813" data-name="Path 813" d="M443.2,316.007l-.742,1.016a.483.483,0,0,1-.4.2h-.029a.471.471,0,0,1,.078-.42l.742-1.016a.473.473,0,0,1,.42-.2A.5.5,0,0,1,443.2,316.007Z" fill="#ef6060" opacity="0.1" style="mix-blend-mode: multiply;isolation: isolate"/>
    <path id="Path_814" data-name="Path 814" d="M448.669,309.118a.488.488,0,0,1-.857.149l-.757-1.008a.488.488,0,1,1,.781-.586l.757,1.008A.49.49,0,0,1,448.669,309.118Z" fill="#ef6060" opacity="0.3" style="mix-blend-mode: multiply;isolation: isolate"/>
    <path id="Path_815" data-name="Path 815" d="M447.424,308.058l.754,1.006a.49.49,0,0,1,.082.434.555.555,0,0,1-.179.251.525.525,0,0,1-.3.091.47.47,0,0,1-.378-.2l-.754-1.007a.467.467,0,0,1-.074-.461.55.55,0,0,1,.171-.224A.483.483,0,0,1,447.424,308.058Z" fill="#dd3c3c"/>
    <path id="Path_816" data-name="Path 816" d="M446.953,308.363l.754,1.006a.483.483,0,0,1,.079.443l-.009.028a.47.47,0,0,1-.378-.2l-.754-1.007a.467.467,0,0,1-.074-.461A.5.5,0,0,1,446.953,308.363Z" fill="#ef6060" opacity="0.1" style="mix-blend-mode: multiply;isolation: isolate"/>
    <path id="Path_817" data-name="Path 817" d="M416.208,296.384a.489.489,0,0,1-.858.15l-.757-1.009a.488.488,0,1,1,.781-.586l.757,1.009A.485.485,0,0,1,416.208,296.384Z" fill="#ef6060" opacity="0.3" style="mix-blend-mode: multiply;isolation: isolate"/>
    <path id="Path_818" data-name="Path 818" d="M414.962,295.324l.755,1.006a.5.5,0,0,1,.082.434.565.565,0,0,1-.179.252.535.535,0,0,1-.3.091.473.473,0,0,1-.379-.2l-.754-1.006a.471.471,0,0,1-.073-.462.538.538,0,0,1,.17-.223A.483.483,0,0,1,414.962,295.324Z" fill="#dd3c3c"/>
    <path id="Path_819" data-name="Path 819" d="M414.491,295.629l.755,1.007a.485.485,0,0,1,.079.443l-.009.028a.473.473,0,0,1-.379-.2l-.754-1.006a.471.471,0,0,1-.073-.462A.5.5,0,0,1,414.491,295.629Z" fill="#ef6060" opacity="0.1" style="mix-blend-mode: multiply;isolation: isolate"/>
    <path id="Path_820" data-name="Path 820" d="M455.243,310.344a.482.482,0,0,1-.158-.258.488.488,0,0,1,.361-.588l1.226-.295a.488.488,0,1,1,.228.949l-1.226.295A.487.487,0,0,1,455.243,310.344Z" fill="#ef6060" opacity="0.3" style="mix-blend-mode: multiply;isolation: isolate"/>
    <path id="Path_821" data-name="Path 821" d="M456.71,309.621l-1.223.294a.492.492,0,0,1-.431-.1.564.564,0,0,1-.16-.264.533.533,0,0,1,.037-.315.472.472,0,0,1,.332-.269l1.223-.293a.47.47,0,0,1,.453.115.548.548,0,0,1,.137.245A.483.483,0,0,1,456.71,309.621Z" fill="#8e5442"/>
    <path id="Path_822" data-name="Path 822" d="M456.617,309.068l-1.224.293a.481.481,0,0,1-.437-.1l-.023-.019a.472.472,0,0,1,.332-.269l1.223-.293a.47.47,0,0,1,.453.115A.5.5,0,0,1,456.617,309.068Z" fill="#ef6060" opacity="0.1" style="mix-blend-mode: multiply;isolation: isolate"/>
    <path id="Path_823" data-name="Path 823" d="M467.563,307.844a.488.488,0,0,1-.741-.458l.1-1.256a.489.489,0,1,1,.974.081l-.1,1.256A.484.484,0,0,1,467.563,307.844Z" fill="#ef6060" opacity="0.3" style="mix-blend-mode: multiply;isolation: isolate"/>
    <path id="Path_824" data-name="Path 824" d="M467.336,306.224l-.105,1.254a.489.489,0,0,1-.226.378.547.547,0,0,1-.3.069.524.524,0,0,1-.288-.133.47.47,0,0,1-.151-.4l.1-1.254a.467.467,0,0,1,.252-.393.533.533,0,0,1,.276-.054A.482.482,0,0,1,467.336,306.224Z" fill="#3963e5"/>
    <path id="Path_825" data-name="Path 825" d="M466.781,306.14l-.105,1.253a.481.481,0,0,1-.235.384l-.025.015a.47.47,0,0,1-.151-.4l.1-1.254a.467.467,0,0,1,.252-.393A.5.5,0,0,1,466.781,306.14Z" fill="#ef6060" opacity="0.1" style="mix-blend-mode: multiply;isolation: isolate"/>
    <g id="Group_1144" data-name="Group 1144">
      <path id="Path_826" data-name="Path 826" d="M471.713,302.074a.487.487,0,0,1-.389-.778l.748-1.015a.488.488,0,0,1,.786.58l-.749,1.015A.487.487,0,0,1,471.713,302.074Z" fill="#ef6060" opacity="0.3" style="mix-blend-mode: multiply;isolation: isolate"/>
      <path id="Path_827" data-name="Path 827" d="M472.371,300.577l-.748,1.012a.49.49,0,0,1-.391.2.552.552,0,0,1-.293-.1.525.525,0,0,1-.174-.264.475.475,0,0,1,.08-.42l.748-1.011a.47.47,0,0,1,.421-.2.542.542,0,0,1,.263.1A.484.484,0,0,1,472.371,300.577Z" fill="#fff"/>
      <path id="Path_828" data-name="Path 828" d="M471.943,300.214l-.747,1.011a.483.483,0,0,1-.4.2h-.029a.475.475,0,0,1,.08-.42l.748-1.011a.47.47,0,0,1,.421-.2A.5.5,0,0,1,471.943,300.214Z" fill="#ef6060" opacity="0.1" style="mix-blend-mode: multiply;isolation: isolate"/>
    </g>
    <path id="Path_829" data-name="Path 829" d="M414.4,308.01a.489.489,0,0,1-.39-.779l.749-1.015a.488.488,0,0,1,.785.581l-.749,1.014A.488.488,0,0,1,414.4,308.01Z" fill="#ef6060" opacity="0.3" style="mix-blend-mode: multiply;isolation: isolate"/>
    <path id="Path_830" data-name="Path 830" d="M415.053,306.512l-.747,1.012a.492.492,0,0,1-.392.2.552.552,0,0,1-.292-.1.528.528,0,0,1-.175-.265.47.47,0,0,1,.081-.419l.747-1.012a.471.471,0,0,1,.421-.2.549.549,0,0,1,.263.1A.483.483,0,0,1,415.053,306.512Z" fill="#69c5ed"/>
    <path id="Path_831" data-name="Path 831" d="M414.626,306.149l-.748,1.011a.479.479,0,0,1-.4.2h-.03a.47.47,0,0,1,.081-.419l.747-1.012a.471.471,0,0,1,.421-.2A.5.5,0,0,1,414.626,306.149Z" fill="#ef6060" opacity="0.1" style="mix-blend-mode: multiply;isolation: isolate"/>
    <g id="Group_1145" data-name="Group 1145">
      <path id="Path_832" data-name="Path 832" d="M435.363,307.833a.488.488,0,0,1,.466-.735l1.255.117a.489.489,0,0,1-.091.973l-1.256-.118A.486.486,0,0,1,435.363,307.833Z" fill="#ef6060" opacity="0.3" style="mix-blend-mode: multiply;isolation: isolate"/>
      <path id="Path_833" data-name="Path 833" d="M436.985,307.624l-1.252-.118a.492.492,0,0,1-.376-.231.547.547,0,0,1-.066-.3.533.533,0,0,1,.137-.286.471.471,0,0,1,.4-.147l1.252.118a.469.469,0,0,1,.391.256.537.537,0,0,1,.051.277A.483.483,0,0,1,436.985,307.624Z" fill="#fff"/>
      <path id="Path_834" data-name="Path 834" d="M437.076,307.07l-1.253-.118a.48.48,0,0,1-.38-.239l-.015-.026a.471.471,0,0,1,.4-.147l1.252.118a.469.469,0,0,1,.391.256A.494.494,0,0,1,437.076,307.07Z" fill="#ef6060" opacity="0.1" style="mix-blend-mode: multiply;isolation: isolate"/>
    </g>
    <g id="Group_1146" data-name="Group 1146">
      <path id="Path_835" data-name="Path 835" d="M429.437,308.111a.488.488,0,0,1-.524-.7l.554-1.133a.488.488,0,1,1,.877.43l-.554,1.132A.486.486,0,0,1,429.437,308.111Z" fill="#ef6060" opacity="0.3" style="mix-blend-mode: multiply;isolation: isolate"/>
      <path id="Path_836" data-name="Path 836" d="M429.814,306.52l-.553,1.129a.486.486,0,0,1-.349.27.546.546,0,0,1-.3-.045.523.523,0,0,1-.219-.228.471.471,0,0,1,0-.428l.554-1.129a.467.467,0,0,1,.377-.275.544.544,0,0,1,.277.05A.482.482,0,0,1,429.814,306.52Z" fill="#f95b30"/>
      <path id="Path_837" data-name="Path 837" d="M429.328,306.239l-.553,1.13a.482.482,0,0,1-.359.271l-.028.006a.471.471,0,0,1,0-.428l.554-1.129a.467.467,0,0,1,.377-.275A.494.494,0,0,1,429.328,306.239Z" fill="#ef6060" opacity="0.1" style="mix-blend-mode: multiply;isolation: isolate"/>
    </g>
    <g id="Group_1147" data-name="Group 1147">
      <path id="Path_838" data-name="Path 838" d="M456.648,296.327a.488.488,0,0,1-.523-.7l.554-1.133a.488.488,0,0,1,.877.43L457,296.06A.486.486,0,0,1,456.648,296.327Z" fill="#ef6060" opacity="0.3" style="mix-blend-mode: multiply;isolation: isolate"/>
      <path id="Path_839" data-name="Path 839" d="M457.026,294.736l-.553,1.129a.489.489,0,0,1-.349.27.549.549,0,0,1-.306-.045.528.528,0,0,1-.219-.228.475.475,0,0,1,0-.428l.553-1.129a.469.469,0,0,1,.378-.275.54.54,0,0,1,.276.05A.484.484,0,0,1,457.026,294.736Z" fill="#f95b30"/>
      <path id="Path_840" data-name="Path 840" d="M456.54,294.455l-.553,1.13a.484.484,0,0,1-.359.271l-.029.006a.475.475,0,0,1,0-.428l.553-1.129a.469.469,0,0,1,.378-.275A.5.5,0,0,1,456.54,294.455Z" fill="#ef6060" opacity="0.1" style="mix-blend-mode: multiply;isolation: isolate"/>
    </g>
    <g id="Group_1148" data-name="Group 1148">
      <path id="Path_841" data-name="Path 841" d="M422.263,305.941a.481.481,0,0,1-.3.042.489.489,0,0,1-.4-.565l.218-1.243a.488.488,0,0,1,.962.17l-.218,1.241A.49.49,0,0,1,422.263,305.941Z" fill="#ef6060" opacity="0.3" style="mix-blend-mode: multiply;isolation: isolate"/>
      <path id="Path_842" data-name="Path 842" d="M422.185,304.307l-.219,1.239a.487.487,0,0,1-.26.356.55.55,0,0,1-.306.042.537.537,0,0,1-.274-.159.477.477,0,0,1-.115-.412l.218-1.238a.47.47,0,0,1,.287-.37.547.547,0,0,1,.28-.028A.483.483,0,0,1,422.185,304.307Z" fill="#fff"/>
      <path id="Path_843" data-name="Path 843" d="M421.64,304.172l-.219,1.239a.481.481,0,0,1-.268.361l-.027.013a.477.477,0,0,1-.115-.412l.218-1.238a.47.47,0,0,1,.287-.37A.5.5,0,0,1,421.64,304.172Z" fill="#ef6060" opacity="0.1" style="mix-blend-mode: multiply;isolation: isolate"/>
    </g>
    <g id="Group_1149" data-name="Group 1149">
      <path id="Path_844" data-name="Path 844" d="M418.831,312.067a.489.489,0,0,1,.871,0l.575,1.122a.489.489,0,0,1-.87.445l-.574-1.122A.487.487,0,0,1,418.831,312.067Z" fill="#ef6060" opacity="0.3" style="mix-blend-mode: multiply;isolation: isolate"/>
      <path id="Path_845" data-name="Path 845" d="M419.879,313.323l-.573-1.12a.49.49,0,0,1-.007-.441.559.559,0,0,1,.219-.218.529.529,0,0,1,.314-.038.473.473,0,0,1,.34.259l.573,1.12a.468.468,0,0,1-.006.467.543.543,0,0,1-.206.191A.483.483,0,0,1,419.879,313.323Z" fill="#804de2"/>
      <path id="Path_846" data-name="Path 846" d="M420.395,313.1l-.573-1.12a.484.484,0,0,1,0-.45l.013-.026a.473.473,0,0,1,.34.259l.573,1.12a.468.468,0,0,1-.006.467A.5.5,0,0,1,420.395,313.1Z" fill="#ef6060" opacity="0.1" style="mix-blend-mode: multiply;isolation: isolate"/>
    </g>
    <g id="Group_1150" data-name="Group 1150">
      <path id="Path_847" data-name="Path 847" d="M463.491,298.285a.489.489,0,0,1,.322.809l-.832.947a.488.488,0,1,1-.733-.644l.832-.947A.489.489,0,0,1,463.491,298.285Z" fill="#ef6060" opacity="0.3" style="mix-blend-mode: multiply;isolation: isolate"/>
      <path id="Path_848" data-name="Path 848" d="M462.708,299.721l.831-.944a.491.491,0,0,1,.408-.169.553.553,0,0,1,.283.124.525.525,0,0,1,.151.278.472.472,0,0,1-.116.411l-.831.945a.468.468,0,0,1-.436.166.549.549,0,0,1-.254-.121A.484.484,0,0,1,462.708,299.721Z" fill="#804de2"/>
      <path id="Path_849" data-name="Path 849" d="M463.1,300.12l.831-.944a.477.477,0,0,1,.417-.168l.029,0a.472.472,0,0,1-.116.411l-.831.945a.468.468,0,0,1-.436.166A.5.5,0,0,1,463.1,300.12Z" fill="#ef6060" opacity="0.1" style="mix-blend-mode: multiply;isolation: isolate"/>
    </g>
    <g id="Group_1151" data-name="Group 1151">
      <path id="Path_850" data-name="Path 850" d="M461.285,311.8a.488.488,0,0,1,.87,0l.575,1.123a.488.488,0,0,1-.869.445l-.575-1.123A.487.487,0,0,1,461.285,311.8Z" fill="#ef6060" opacity="0.3" style="mix-blend-mode: multiply;isolation: isolate"/>
      <path id="Path_851" data-name="Path 851" d="M462.332,313.054l-.573-1.12a.493.493,0,0,1-.007-.441.551.551,0,0,1,.219-.217.525.525,0,0,1,.315-.038.471.471,0,0,1,.34.258l.572,1.12a.468.468,0,0,1-.006.467.546.546,0,0,1-.206.192A.483.483,0,0,1,462.332,313.054Z" fill="#fff"/>
      <path id="Path_852" data-name="Path 852" d="M462.848,312.833l-.572-1.12a.476.476,0,0,1,0-.449l.013-.026a.471.471,0,0,1,.34.258l.572,1.12a.468.468,0,0,1-.006.467A.5.5,0,0,1,462.848,312.833Z" fill="#ef6060" opacity="0.1" style="mix-blend-mode: multiply;isolation: isolate"/>
    </g>
    <path id="Path_853" data-name="Path 853" d="M453.032,304.144a.489.489,0,0,1,.871,0l.575,1.123a.488.488,0,0,1-.87.444l-.574-1.122A.487.487,0,0,1,453.032,304.144Z" fill="#ef6060" opacity="0.3" style="mix-blend-mode: multiply;isolation: isolate"/>
    <path id="Path_854" data-name="Path 854" d="M454.08,305.4l-.573-1.12a.49.49,0,0,1-.007-.441.551.551,0,0,1,.219-.217.529.529,0,0,1,.314-.039.473.473,0,0,1,.34.259l.573,1.12a.468.468,0,0,1-.006.467.553.553,0,0,1-.206.192A.483.483,0,0,1,454.08,305.4Z" fill="#aec95b"/>
    <path id="Path_855" data-name="Path 855" d="M454.6,305.179l-.573-1.12a.482.482,0,0,1,0-.449l.013-.027a.473.473,0,0,1,.34.259l.573,1.12a.468.468,0,0,1-.006.467A.493.493,0,0,1,454.6,305.179Z" fill="#ef6060" opacity="0.1" style="mix-blend-mode: multiply;isolation: isolate"/>
    <g id="Group_1152" data-name="Group 1152">
      <path id="Path_856" data-name="Path 856" d="M438.355,311.916a.489.489,0,0,1,.871,0l.575,1.123a.488.488,0,1,1-.87.444l-.574-1.122A.487.487,0,0,1,438.355,311.916Z" fill="#ef6060" opacity="0.3" style="mix-blend-mode: multiply;isolation: isolate"/>
      <path id="Path_857" data-name="Path 857" d="M439.4,313.172l-.573-1.12a.49.49,0,0,1-.007-.441.551.551,0,0,1,.219-.217.53.53,0,0,1,.314-.039.473.473,0,0,1,.34.259l.573,1.12a.468.468,0,0,1-.006.467.553.553,0,0,1-.206.192A.483.483,0,0,1,439.4,313.172Z" fill="#efca30"/>
      <path id="Path_858" data-name="Path 858" d="M439.919,312.951l-.573-1.12a.482.482,0,0,1,0-.449l.013-.027a.473.473,0,0,1,.34.259l.573,1.12a.468.468,0,0,1-.006.467A.5.5,0,0,1,439.919,312.951Z" fill="#ef6060" opacity="0.1" style="mix-blend-mode: multiply;isolation: isolate"/>
    </g>
    <g id="Group_1153" data-name="Group 1153">
      <path id="Path_859" data-name="Path 859" d="M426.029,298.643a.488.488,0,0,1,.334.8l-.818.96a.488.488,0,0,1-.743-.634l.818-.96A.489.489,0,0,1,426.029,298.643Z" fill="#ef6060" opacity="0.3" style="mix-blend-mode: multiply;isolation: isolate"/>
      <path id="Path_860" data-name="Path 860" d="M425.267,300.09l.817-.956a.491.491,0,0,1,.4-.175.55.55,0,0,1,.285.119.532.532,0,0,1,.155.277.468.468,0,0,1-.109.412l-.817.957a.47.47,0,0,1-.434.173.549.549,0,0,1-.256-.118A.484.484,0,0,1,425.267,300.09Z" fill="#efca30"/>
      <path id="Path_861" data-name="Path 861" d="M425.669,300.483l.816-.957a.485.485,0,0,1,.415-.174l.029,0a.468.468,0,0,1-.109.412l-.817.957a.47.47,0,0,1-.434.173A.5.5,0,0,1,425.669,300.483Z" fill="#ef6060" opacity="0.1" style="mix-blend-mode: multiply;isolation: isolate"/>
    </g>
  </g>
</svg>
